<svg width="500" height="500" viewBox="0 0 500 500" fill="none" xmlns="http://www.w3.org/2000/svg">
<path d="M283.5 160.99C340.115 160.99 386.01 206.885 386.01 263.5C386.01 320.115 340.115 366.01 283.5 366.01C226.885 366.01 180.99 320.115 180.99 263.5C180.99 206.885 226.885 160.99 283.5 160.99ZM283.5 371.807C257.057 371.807 231.599 362.177 211.807 344.693C196.885 331.5 185.896 314.531 180.031 295.62L173.057 297.786C179.312 317.974 191.042 336.089 206.974 350.167C228.099 368.828 255.276 379.109 283.5 379.109V371.807ZM388.198 312.62C395.443 297.193 399.115 280.667 399.115 263.5H391.812C391.812 279.583 388.37 295.068 381.583 309.51C368.359 337.651 343.698 358.781 313.932 367.474L315.979 374.49C347.76 365.203 374.078 342.651 388.198 312.62ZM372.88 190.167C353.203 166.198 325.432 151.375 294.688 148.417C290.995 148.068 287.229 147.885 283.5 147.885V155.193C286.995 155.193 290.526 155.359 293.995 155.693C322.786 158.458 348.797 172.349 367.234 194.802L372.88 190.167ZM212.427 181.771L207.63 176.26C182.37 198.245 167.885 230.042 167.885 263.5H175.193C175.193 232.156 188.76 202.365 212.427 181.771ZM412 263.5C412 250.724 410.13 238.109 406.443 226.005C401.781 210.698 394.365 196.542 384.401 183.922C359.844 152.828 323.068 135 283.5 135V142.307C320.818 142.307 355.505 159.125 378.661 188.448C388.062 200.349 395.057 213.703 399.453 228.13C402.932 239.547 404.693 251.448 404.693 263.5C404.693 276.484 402.651 289.266 398.625 301.479L405.568 303.766C409.833 290.812 412 277.266 412 263.5ZM199.76 175.891C213.849 162.417 231.135 152.453 249.75 147.062L247.724 140.047C227.979 145.76 209.646 156.328 194.714 170.609C180.115 184.562 168.885 201.958 162.224 220.917L169.12 223.339C175.396 205.458 185.995 189.052 199.76 175.891ZM309.75 389.312C331.135 384.87 351.203 374.911 367.771 360.51L362.979 354.995C347.354 368.583 328.432 377.974 308.266 382.161C300.161 383.839 291.828 384.693 283.5 384.693C262.807 384.693 242.385 379.391 224.438 369.354C205.391 358.698 189.531 343.089 178.578 324.198C167.932 305.839 162.307 284.849 162.307 263.5H155C155 286.135 160.964 308.391 172.255 327.865C183.865 347.885 200.677 364.438 220.87 375.729C239.901 386.37 261.557 392 283.5 392C292.328 392 301.156 391.094 309.75 389.312Z" fill="white"/>
<path d="M243.386 277L247.612 251.545H255.07C256.495 251.545 257.705 251.848 258.699 252.453C259.701 253.049 260.422 253.895 260.862 254.988C261.309 256.074 261.417 257.346 261.185 258.804C260.936 260.246 260.41 261.509 259.606 262.595C258.802 263.672 257.804 264.513 256.611 265.118C255.418 265.714 254.108 266.013 252.683 266.013H245.624L245.723 265.217H252.783C254.059 265.217 255.231 264.952 256.3 264.422C257.377 263.892 258.272 263.146 258.985 262.185C259.706 261.223 260.174 260.097 260.389 258.804C260.605 257.495 260.513 256.355 260.116 255.386C259.718 254.417 259.072 253.667 258.177 253.136C257.282 252.606 256.196 252.341 254.92 252.341H248.259L244.182 277H243.386ZM255.02 265.416L259.345 277H258.5L254.175 265.416H255.02ZM264.92 277L269.145 251.545H282.718L282.569 252.341H269.792L267.903 263.875H279.934L279.785 264.67H267.753L265.864 276.205H278.989L278.84 277H264.92ZM308.676 251.545L304.45 277H303.654L290.231 253.037H290.132L286.154 277H285.359L289.585 251.545H290.38L303.804 275.509H303.903L307.88 251.545H308.676ZM312.395 277L316.621 251.545H330.193L330.044 252.341H317.267L315.378 263.875H327.409L327.26 264.67H315.229L313.34 276.205H326.465L326.316 277H312.395Z" fill="black"/>
<path d="M234.5 174.017L228.404 349.753" stroke="black"/>
<path d="M195.391 211.262L303 364" stroke="black"/>
</svg>
